<svg xmlns="http://www.w3.org/2000/svg" xmlns:xlink="http://www.w3.org/1999/xlink" width="180" zoomAndPan="magnify" viewBox="0 0 135 30.000001" height="40" preserveAspectRatio="xMidYMid meet" version="1.0"><defs><g/><clipPath id="716fa5315a"><path d="M 30 0 L 131 0 L 131 29.03125 L 30 29.03125 Z M 30 0 " clip-rule="nonzero"/></clipPath><clipPath id="d5dd2b770d"><rect x="0" width="101" y="0" height="30"/></clipPath></defs><path fill="#ff592c" d="M 17.304688 2.277344 C 17.683594 2.277344 17.980469 2.605469 17.941406 2.976562 L 17.128906 10.535156 C 17.082031 10.945312 16.839844 11.308594 16.472656 11.507812 L 12.789062 13.523438 C 12.433594 13.71875 12.003906 13.734375 11.636719 13.566406 L 4.441406 10.332031 C 4.09375 10.175781 3.960938 9.753906 4.15625 9.429688 L 6.386719 5.753906 C 6.597656 5.40625 7.085938 5.339844 7.382812 5.625 L 12.609375 10.59375 C 12.855469 10.828125 13.226562 10.878906 13.527344 10.710938 C 13.832031 10.542969 13.988281 10.195312 13.902344 9.859375 L 12.210938 3.050781 C 12.113281 2.652344 12.421875 2.265625 12.835938 2.269531 Z M 17.304688 2.277344 " fill-opacity="1" fill-rule="nonzero"/><path fill="#ff592c" d="M 4.046875 19.097656 C 3.855469 18.773438 3.992188 18.355469 4.339844 18.203125 L 11.375 15.121094 C 11.757812 14.953125 12.199219 14.980469 12.558594 15.191406 L 16.167969 17.335938 C 16.515625 17.542969 16.742188 17.898438 16.78125 18.300781 L 17.539062 26.070312 C 17.578125 26.445312 17.273438 26.769531 16.890625 26.765625 L 12.554688 26.695312 C 12.140625 26.6875 11.84375 26.304688 11.941406 25.910156 L 13.6875 18.957031 C 13.769531 18.625 13.625 18.285156 13.332031 18.109375 C 13.03125 17.933594 12.648438 17.976562 12.394531 18.214844 L 7.269531 23.0625 C 6.96875 23.347656 6.476562 23.277344 6.269531 22.921875 Z M 4.046875 19.097656 " fill-opacity="1" fill-rule="nonzero"/><path fill="#ff592c" d="M 25.546875 7.0625 C 25.363281 6.734375 24.929688 6.636719 24.617188 6.855469 L 18.328125 11.230469 C 17.984375 11.46875 17.78125 11.855469 17.78125 12.269531 L 17.789062 16.425781 C 17.792969 16.828125 17.984375 17.203125 18.3125 17.441406 L 24.675781 22.074219 C 24.984375 22.300781 25.421875 22.210938 25.613281 21.882812 L 27.78125 18.171875 C 27.988281 17.816406 27.804688 17.367188 27.410156 17.25 L 20.472656 15.160156 C 20.144531 15.058594 19.917969 14.761719 19.921875 14.421875 C 19.921875 14.078125 20.15625 13.773438 20.492188 13.683594 L 27.339844 11.832031 C 27.742188 11.722656 27.933594 11.269531 27.730469 10.910156 Z M 25.546875 7.0625 " fill-opacity="1" fill-rule="nonzero"/><g clip-path="url(#716fa5315a)"><g transform="matrix(1, 0, 0, 1, 30, 0.000000000000005692)"><g clip-path="url(#d5dd2b770d)"><g fill="#333333" fill-opacity="1"><g transform="translate(1.290779, 23.230725)"><g><path d="M 3.578125 0 L -0.015625 0 L 6.578125 -17.28125 L 10.890625 -17.28125 L 17.515625 0 L 13.828125 0 L 12.515625 -3.484375 L 4.859375 -3.484375 Z M 8.703125 -13.828125 L 6.09375 -6.796875 L 11.296875 -6.796875 Z M 8.703125 -13.828125 "/></g></g></g><g fill="#333333" fill-opacity="1"><g transform="translate(18.773906, 23.230725)"><g><path d="M 4.921875 -5.203125 C 4.921875 -4.554688 5.078125 -4.019531 5.390625 -3.59375 C 5.710938 -3.164062 6.234375 -2.953125 6.953125 -2.953125 C 7.691406 -2.953125 8.226562 -3.175781 8.5625 -3.625 C 8.90625 -4.082031 9.078125 -4.609375 9.078125 -5.203125 L 9.078125 -11.796875 L 12.515625 -11.796875 L 12.515625 0 L 9.125 0 L 9.125 -1.453125 L 9.09375 -1.453125 C 8.695312 -0.878906 8.265625 -0.472656 7.796875 -0.234375 C 7.328125 -0.00390625 6.90625 0.128906 6.53125 0.171875 C 6.164062 0.222656 5.925781 0.25 5.8125 0.25 C 4.832031 0.25 4.019531 0.03125 3.375 -0.40625 C 2.738281 -0.84375 2.265625 -1.410156 1.953125 -2.109375 C 1.640625 -2.816406 1.484375 -3.578125 1.484375 -4.390625 L 1.484375 -11.796875 L 4.921875 -11.796875 Z M 4.921875 -5.203125 "/></g></g></g><g fill="#333333" fill-opacity="1"><g transform="translate(32.879611, 23.230725)"><g><path d="M 9.046875 -8.4375 C 8.785156 -8.476562 8.515625 -8.5 8.234375 -8.5 C 7.453125 -8.5 6.828125 -8.335938 6.359375 -8.015625 C 5.890625 -7.703125 5.550781 -7.28125 5.34375 -6.75 C 5.132812 -6.226562 5.03125 -5.640625 5.03125 -4.984375 L 5.03125 0 L 1.59375 0 L 1.59375 -11.796875 L 5.015625 -11.796875 L 5.015625 -9.984375 L 5.03125 -9.984375 C 5.269531 -10.492188 5.675781 -10.941406 6.25 -11.328125 C 6.832031 -11.722656 7.539062 -11.921875 8.375 -11.921875 C 8.644531 -11.921875 8.867188 -11.890625 9.046875 -11.828125 Z M 9.046875 -8.4375 "/></g></g></g><g fill="#333333" fill-opacity="1"><g transform="translate(42.26134, 23.230725)"><g><path d="M 4.375 -4.953125 C 4.488281 -4.210938 4.820312 -3.640625 5.375 -3.234375 C 5.925781 -2.828125 6.5625 -2.625 7.28125 -2.625 C 7.78125 -2.625 8.273438 -2.75 8.765625 -3 C 9.265625 -3.25 9.644531 -3.597656 9.90625 -4.046875 L 12.40625 -2.40625 C 11.414062 -0.625 9.722656 0.265625 7.328125 0.265625 C 6.140625 0.265625 5.054688 0.00390625 4.078125 -0.515625 C 3.097656 -1.035156 2.316406 -1.757812 1.734375 -2.6875 C 1.148438 -3.613281 0.859375 -4.691406 0.859375 -5.921875 C 0.859375 -6.773438 1.023438 -7.570312 1.359375 -8.3125 C 1.691406 -9.050781 2.144531 -9.703125 2.71875 -10.265625 C 3.289062 -10.835938 3.953125 -11.28125 4.703125 -11.59375 C 5.453125 -11.914062 6.253906 -12.078125 7.109375 -12.078125 C 8.285156 -12.078125 9.3125 -11.828125 10.1875 -11.328125 C 11.0625 -10.828125 11.742188 -10.132812 12.234375 -9.25 C 12.734375 -8.363281 12.984375 -7.34375 12.984375 -6.1875 C 12.984375 -5.976562 12.984375 -5.769531 12.984375 -5.5625 C 12.984375 -5.351562 12.96875 -5.148438 12.9375 -4.953125 Z M 9.53125 -7.21875 C 9.519531 -7.507812 9.421875 -7.8125 9.234375 -8.125 C 9.054688 -8.445312 8.785156 -8.71875 8.421875 -8.9375 C 8.054688 -9.15625 7.585938 -9.265625 7.015625 -9.265625 C 6.503906 -9.265625 6.0625 -9.144531 5.6875 -8.90625 C 5.320312 -8.675781 5.035156 -8.398438 4.828125 -8.078125 C 4.628906 -7.765625 4.503906 -7.476562 4.453125 -7.21875 Z M 9.53125 -7.21875 "/></g></g></g><g fill="#333333" fill-opacity="1"><g transform="translate(56.10215, 23.230725)"><g><path d="M 9.203125 -6.53125 C 9.203125 -7.195312 9.035156 -7.742188 8.703125 -8.171875 C 8.378906 -8.609375 7.863281 -8.828125 7.15625 -8.828125 C 6.4375 -8.828125 5.898438 -8.59375 5.546875 -8.125 C 5.203125 -7.664062 5.03125 -7.132812 5.03125 -6.53125 L 5.03125 0 L 1.59375 0 L 1.59375 -11.796875 L 5.015625 -11.796875 L 5.015625 -10.25 L 5.03125 -10.25 C 5.25 -10.644531 5.523438 -10.957031 5.859375 -11.1875 C 6.191406 -11.425781 6.523438 -11.601562 6.859375 -11.71875 C 7.203125 -11.84375 7.507812 -11.921875 7.78125 -11.953125 C 8.050781 -11.992188 8.25 -12.015625 8.375 -12.015625 C 9.375 -12.015625 10.1875 -11.789062 10.8125 -11.34375 C 11.4375 -10.90625 11.894531 -10.328125 12.1875 -9.609375 C 12.476562 -8.898438 12.625 -8.140625 12.625 -7.328125 L 12.625 0 L 9.203125 0 Z M 9.203125 -6.53125 "/></g></g></g><g fill="#333333" fill-opacity="1"><g transform="translate(70.207855, 23.230725)"><g><path d="M 8.875 -0.0625 C 8.582031 0.0195312 8.304688 0.078125 8.046875 0.109375 C 7.785156 0.140625 7.523438 0.15625 7.265625 0.15625 C 5.703125 0.15625 4.53125 -0.25 3.75 -1.0625 C 2.96875 -1.875 2.578125 -2.945312 2.578125 -4.28125 L 2.578125 -8.8125 L 0.46875 -8.8125 L 0.46875 -11.796875 L 2.625 -11.796875 L 2.625 -15.484375 L 6.03125 -15.484375 L 6.03125 -11.796875 L 8.9375 -11.796875 L 8.9375 -8.8125 L 6.03125 -8.8125 L 6.03125 -4.703125 C 6.03125 -4.015625 6.207031 -3.53125 6.5625 -3.25 C 6.925781 -2.96875 7.429688 -2.828125 8.078125 -2.828125 C 8.171875 -2.828125 8.289062 -2.832031 8.4375 -2.84375 C 8.582031 -2.863281 8.726562 -2.890625 8.875 -2.921875 Z M 8.875 -0.0625 "/></g></g></g><g fill="#333333" fill-opacity="1"><g transform="translate(80.141451, 23.230725)"><g><path d="M 1.171875 -15.890625 C 1.171875 -16.492188 1.378906 -17 1.796875 -17.40625 C 2.210938 -17.820312 2.710938 -18.03125 3.296875 -18.03125 C 3.890625 -18.03125 4.394531 -17.820312 4.8125 -17.40625 C 5.238281 -17 5.453125 -16.492188 5.453125 -15.890625 C 5.453125 -15.304688 5.238281 -14.804688 4.8125 -14.390625 C 4.394531 -13.984375 3.890625 -13.78125 3.296875 -13.78125 C 2.710938 -13.78125 2.210938 -13.984375 1.796875 -14.390625 C 1.378906 -14.804688 1.171875 -15.304688 1.171875 -15.890625 Z M 1.59375 0 L 5.0625 0 L 5.0625 -11.796875 L 1.59375 -11.796875 Z M 1.59375 0 "/></g></g></g><g fill="#333333" fill-opacity="1"><g transform="translate(86.785921, 23.230725)"><g><path d="M 4.90625 0.21875 C 4.195312 0.21875 3.539062 0.078125 2.9375 -0.203125 C 2.332031 -0.484375 1.84375 -0.882812 1.46875 -1.40625 C 1.101562 -1.9375 0.921875 -2.566406 0.921875 -3.296875 L 0.921875 -3.328125 C 0.921875 -4.066406 1.078125 -4.664062 1.390625 -5.125 C 1.710938 -5.59375 2.132812 -5.960938 2.65625 -6.234375 C 3.175781 -6.503906 3.742188 -6.691406 4.359375 -6.796875 C 4.984375 -6.898438 5.59375 -6.953125 6.1875 -6.953125 L 7.359375 -6.953125 C 7.679688 -6.953125 7.914062 -7.035156 8.0625 -7.203125 C 8.207031 -7.378906 8.28125 -7.582031 8.28125 -7.8125 C 8.28125 -8.195312 8.125 -8.535156 7.8125 -8.828125 C 7.507812 -9.117188 7.03125 -9.265625 6.375 -9.265625 C 5.757812 -9.265625 5.238281 -9.128906 4.8125 -8.859375 C 4.394531 -8.585938 4.039062 -8.195312 3.75 -7.6875 L 1.125 -9.25 C 1.59375 -10.113281 2.273438 -10.796875 3.171875 -11.296875 C 4.078125 -11.796875 5.195312 -12.046875 6.53125 -12.046875 C 7.53125 -12.046875 8.414062 -11.875 9.1875 -11.53125 C 9.96875 -11.1875 10.570312 -10.660156 11 -9.953125 C 11.4375 -9.242188 11.65625 -8.363281 11.65625 -7.3125 L 11.65625 0 L 8.484375 0 L 8.484375 -1.453125 L 8.4375 -1.484375 C 7.988281 -0.847656 7.445312 -0.40625 6.8125 -0.15625 C 6.1875 0.09375 5.550781 0.21875 4.90625 0.21875 Z M 5.890625 -2.296875 C 6.660156 -2.296875 7.242188 -2.519531 7.640625 -2.96875 C 8.046875 -3.414062 8.25 -3.945312 8.25 -4.5625 L 8.25 -4.828125 L 6.1875 -4.828125 C 5.726562 -4.828125 5.3125 -4.71875 4.9375 -4.5 C 4.570312 -4.289062 4.390625 -3.953125 4.390625 -3.484375 C 4.390625 -3.078125 4.535156 -2.773438 4.828125 -2.578125 C 5.128906 -2.390625 5.484375 -2.296875 5.890625 -2.296875 Z M 5.890625 -2.296875 "/></g></g></g></g></g></g></svg>