<svg xmlns="http://www.w3.org/2000/svg" xmlns:xlink="http://www.w3.org/1999/xlink" width="40" zoomAndPan="magnify" viewBox="0 0 30 30.000001" height="40" preserveAspectRatio="xMidYMid meet" version="1.0"><path fill="#ff592c" d="M 16.304688 1.957031 C 16.6875 1.957031 16.984375 2.285156 16.945312 2.65625 L 16.125 10.214844 C 16.082031 10.625 15.835938 10.988281 15.46875 11.1875 L 11.757812 13.203125 C 11.398438 13.394531 10.964844 13.414062 10.59375 13.246094 L 3.34375 10.007812 C 2.996094 9.851562 2.859375 9.433594 3.058594 9.109375 L 5.304688 5.433594 C 5.519531 5.085938 6.007812 5.019531 6.308594 5.304688 L 11.574219 10.273438 C 11.820312 10.507812 12.195312 10.554688 12.5 10.390625 C 12.804688 10.222656 12.960938 9.875 12.878906 9.539062 L 11.175781 2.730469 C 11.074219 2.332031 11.382812 1.945312 11.804688 1.945312 Z M 16.304688 1.957031 " fill-opacity="1" fill-rule="nonzero"/><path fill="#ff592c" d="M 2.945312 18.777344 C 2.753906 18.449219 2.894531 18.035156 3.246094 17.882812 L 10.332031 14.800781 C 10.714844 14.632812 11.160156 14.660156 11.523438 14.871094 L 15.15625 17.015625 C 15.507812 17.222656 15.738281 17.578125 15.777344 17.976562 L 16.542969 25.75 C 16.578125 26.125 16.273438 26.449219 15.886719 26.441406 L 11.519531 26.371094 C 11.101562 26.367188 10.800781 25.980469 10.902344 25.585938 L 12.660156 18.632812 C 12.746094 18.304688 12.597656 17.960938 12.304688 17.789062 C 12 17.613281 11.613281 17.65625 11.359375 17.894531 L 6.195312 22.742188 C 5.890625 23.027344 5.398438 22.957031 5.1875 22.601562 Z M 2.945312 18.777344 " fill-opacity="1" fill-rule="nonzero"/><path fill="#ff592c" d="M 24.609375 6.742188 C 24.421875 6.414062 23.984375 6.316406 23.671875 6.53125 L 17.332031 10.90625 C 16.988281 11.144531 16.785156 11.535156 16.785156 11.945312 L 16.792969 16.105469 C 16.796875 16.507812 16.988281 16.882812 17.320312 17.121094 L 23.730469 21.753906 C 24.042969 21.976562 24.480469 21.886719 24.675781 21.5625 L 26.859375 17.851562 C 27.066406 17.496094 26.882812 17.046875 26.484375 16.925781 L 19.492188 14.835938 C 19.164062 14.738281 18.9375 14.441406 18.9375 14.101562 C 18.9375 13.757812 19.175781 13.453125 19.515625 13.363281 L 26.414062 11.507812 C 26.816406 11.402344 27.011719 10.949219 26.804688 10.589844 Z M 24.609375 6.742188 " fill-opacity="1" fill-rule="nonzero"/></svg>